<?xml version="1.0" encoding="UTF-8" standalone="no"?>
<svg
   viewBox="0 0 704.37781 844.00189"
   version="1.1"
   id="svg243"
   sodipodi:docname="slime.svg"
   inkscape:version="1.1 (c68e22c387, 2021-05-23)"
   xmlns:inkscape="http://www.inkscape.org/namespaces/inkscape"
   xmlns:sodipodi="http://sodipodi.sourceforge.net/DTD/sodipodi-0.dtd"
   xmlns:xlink="http://www.w3.org/1999/xlink"
   xmlns="http://www.w3.org/2000/svg"
   xmlns:svg="http://www.w3.org/2000/svg">
  <sodipodi:namedview
     id="namedview245"
     pagecolor="#ffffff"
     bordercolor="#666666"
     borderopacity="1.0"
     inkscape:pageshadow="2"
     inkscape:pageopacity="0.0"
     inkscape:pagecheckerboard="0"
     showgrid="false"
     inkscape:zoom="0.48815056"
     inkscape:cx="-115.74298"
     inkscape:cy="445.55925"
     inkscape:window-width="1920"
     inkscape:window-height="1009"
     inkscape:window-x="3352"
     inkscape:window-y="56"
     inkscape:window-maximized="1"
     inkscape:current-layer="svg243" />
  <defs
     id="defs115">
    <filter
       id="ak"
       x="-0.06903632"
       y="-0.037802704"
       width="1.1380726"
       height="1.0756054">
      <feGaussianBlur
         stdDeviation="8.85147"
         id="feGaussianBlur2" />
    </filter>
    <filter
       id="ai"
       x="-0.061940074"
       y="-0.059866121"
       width="1.1238801"
       height="1.1197322">
      <feGaussianBlur
         stdDeviation="9.72957"
         id="feGaussianBlur5" />
    </filter>
    <filter
       id="ad"
       x="-0.040730356"
       y="-0.092747174"
       width="1.0814607"
       height="1.1854943">
      <feGaussianBlur
         stdDeviation="1.38862"
         id="feGaussianBlur8" />
    </filter>
    <filter
       id="ab"
       x="-0.029035922"
       y="-0.040901639"
       width="1.0580718"
       height="1.0818033">
      <feGaussianBlur
         stdDeviation="1.14833"
         id="feGaussianBlur11" />
    </filter>
    <filter
       id="aa"
       x="-0.024400982"
       y="-0.0073699577"
       width="1.048802"
       height="1.0147399">
      <feGaussianBlur
         stdDeviation="1.62754"
         id="feGaussianBlur14" />
    </filter>
    <filter
       id="s"
       x="-0.047658959"
       y="-0.08977588"
       width="1.0953179"
       height="1.1795518">
      <feGaussianBlur
         stdDeviation="3.24964"
         id="feGaussianBlur17" />
    </filter>
    <filter
       id="q"
       x="-0.022703321"
       y="-0.067371641"
       width="1.0454066"
       height="1.1347433">
      <feGaussianBlur
         stdDeviation="2.40615"
         id="feGaussianBlur20" />
    </filter>
    <filter
       id="p"
       x="-0.060586607"
       y="-0.093686933"
       width="1.1211732"
       height="1.1873739">
      <feGaussianBlur
         stdDeviation="4.57282"
         id="feGaussianBlur23" />
    </filter>
    <filter
       id="o"
       x="-0.018134458"
       y="-0.030129528"
       width="1.0362689"
       height="1.0602591">
      <feGaussianBlur
         stdDeviation="1.19408"
         id="feGaussianBlur26" />
    </filter>
    <filter
       id="aj"
       x="-0.31434299"
       y="-0.12671118"
       width="1.628686"
       height="1.2534224">
      <feGaussianBlur
         stdDeviation="9.72957"
         id="feGaussianBlur29" />
    </filter>
    <filter
       id="ah"
       x="-0.10889119"
       y="-0.069578839"
       width="1.2177824"
       height="1.1391577">
      <feGaussianBlur
         stdDeviation="2.04573"
         id="feGaussianBlur32" />
    </filter>
    <filter
       id="ag"
       x="-0.50377489"
       y="-0.036417165"
       width="2.0075498"
       height="1.0728343">
      <feGaussianBlur
         stdDeviation="1.79919"
         id="feGaussianBlur35" />
    </filter>
    <filter
       id="af"
       x="-0.19474264"
       y="-0.022055381"
       width="1.3894853"
       height="1.0441108">
      <feGaussianBlur
         stdDeviation="2.72406"
         id="feGaussianBlur38" />
    </filter>
    <filter
       id="ae"
       x="-0.032406061"
       y="-0.11903592"
       width="1.0648121"
       height="1.2380718">
      <feGaussianBlur
         stdDeviation="1.06144"
         id="feGaussianBlur41" />
    </filter>
    <filter
       id="ac"
       x="-0.055219478"
       y="-0.11025126"
       width="1.110439"
       height="1.2205025">
      <feGaussianBlur
         stdDeviation="1.11533"
         id="feGaussianBlur44" />
    </filter>
    <filter
       id="z"
       x="-0.153293"
       y="-0.048411658"
       width="1.306586"
       height="1.0968233">
      <feGaussianBlur
         stdDeviation="4.06313"
         id="feGaussianBlur47" />
    </filter>
    <filter
       id="f"
       x="-0.17569703"
       y="-0.18691263"
       width="1.3513941"
       height="1.3738253">
      <feGaussianBlur
         stdDeviation="5.22911"
         id="feGaussianBlur50" />
    </filter>
    <filter
       id="e"
       x="-0.34431205"
       y="-0.36980991"
       width="1.6886241"
       height="1.7396198">
      <feGaussianBlur
         stdDeviation="2.9717"
         id="feGaussianBlur53" />
    </filter>
    <filter
       id="y"
       x="-0.074468205"
       y="-0.10255668"
       width="1.1489364"
       height="1.2051134">
      <feGaussianBlur
         stdDeviation="3.47962"
         id="feGaussianBlur56" />
    </filter>
    <filter
       id="x"
       x="-0.19942106"
       y="-0.049447112"
       width="1.3988421"
       height="1.0988942">
      <feGaussianBlur
         stdDeviation="4.64989"
         id="feGaussianBlur59" />
    </filter>
    <filter
       id="b"
       x="-0.10978093"
       y="-0.77942982"
       width="1.2195619"
       height="2.5588596">
      <feGaussianBlur
         stdDeviation="1.64031"
         id="feGaussianBlur62" />
    </filter>
    <filter
       id="w"
       x="-0.1400937"
       y="-0.39963712"
       width="1.2801874"
       height="1.7992742">
      <feGaussianBlur
         stdDeviation="1.538"
         id="feGaussianBlur65" />
    </filter>
    <filter
       id="v"
       x="-0.12821519"
       y="-0.6062362"
       width="1.2564304"
       height="2.2124724">
      <feGaussianBlur
         stdDeviation="1.538"
         id="feGaussianBlur68" />
    </filter>
    <filter
       id="u"
       x="-0.1353357"
       y="-0.12821564"
       width="1.2706714"
       height="1.2564313">
      <feGaussianBlur
         stdDeviation="1.538"
         id="feGaussianBlur71" />
    </filter>
    <filter
       id="t"
       x="-0.032737968"
       y="-0.20884608"
       width="1.0654759"
       height="1.4176922">
      <feGaussianBlur
         stdDeviation="2.54921"
         id="feGaussianBlur74" />
    </filter>
    <filter
       id="r"
       x="-0.28124616"
       y="-0.31938057"
       width="1.5624923"
       height="1.6387611">
      <feGaussianBlur
         stdDeviation="5.68211"
         id="feGaussianBlur77" />
    </filter>
    <linearGradient
       id="d">
      <stop
         stop-color="#668000"
         offset="0"
         id="stop80" />
      <stop
         stop-color="#668000"
         stop-opacity="0"
         offset="1"
         id="stop82" />
    </linearGradient>
    <linearGradient
       id="a">
      <stop
         stop-color="#aad400"
         offset="0"
         id="stop85" />
      <stop
         stop-color="#aad400"
         stop-opacity="0"
         offset="1"
         id="stop87" />
    </linearGradient>
    <linearGradient
       id="n"
       x1="199.98"
       x2="247.81"
       y1="473.27"
       y2="723.59"
       gradientUnits="userSpaceOnUse">
      <stop
         stop-color="#677821"
         offset="0"
         id="stop90" />
      <stop
         stop-color="#668000"
         stop-opacity=".9375"
         offset="1"
         id="stop92" />
    </linearGradient>
    <linearGradient
       id="h"
       x2="0"
       y1="213.94"
       y2="252.32"
       gradientUnits="userSpaceOnUse">
      <stop
         stop-color="#cf0"
         offset="0"
         id="stop95" />
      <stop
         stop-color="#cf0"
         stop-opacity="0"
         offset="1"
         id="stop97" />
    </linearGradient>
    <linearGradient
       id="g"
       x2="0"
       y1="903.59"
       y2="856.03"
       gradientUnits="userSpaceOnUse">
      <stop
         stop-color="#a6d000"
         offset="0"
         id="stop100" />
      <stop
         stop-color="#a6d000"
         stop-opacity="0"
         offset="1"
         id="stop102" />
    </linearGradient>
    <linearGradient
       id="m"
       x1="303.05"
       x2="331.33"
       y1="668.82"
       y2="876.6"
       gradientUnits="userSpaceOnUse"
       xlink:href="#d" />
    <linearGradient
       id="l"
       x1="566.7"
       x2="526.29"
       y1="895.79"
       y2="901.2"
       gradientUnits="userSpaceOnUse"
       xlink:href="#a" />
    <linearGradient
       id="k"
       x1="278.8"
       x2="228.56"
       y1="389.7"
       y2="171.51"
       gradientUnits="userSpaceOnUse"
       xlink:href="#a" />
    <linearGradient
       id="j"
       x1="147.14"
       x2="190"
       y1="316.65"
       y2="315.93"
       gradientUnits="userSpaceOnUse"
       xlink:href="#a" />
    <linearGradient
       id="i"
       x1="370"
       x2="411.67"
       y1="495.22"
       y2="690.93"
       gradientUnits="userSpaceOnUse"
       xlink:href="#d" />
    <radialGradient
       id="c"
       cx="223.25"
       cy="281.2"
       r="33.571"
       gradientTransform="matrix(-1.6624 .36585 -.32506 -1.477 699.81 621.6)"
       gradientUnits="userSpaceOnUse">
      <stop
         stop-color="#df5"
         offset="0"
         id="stop110" />
      <stop
         stop-color="#aad400"
         offset="1"
         id="stop112" />
    </radialGradient>
  </defs>
  <g
     transform="translate(-14.286 -106.65)"
     id="g241">
    <path
       transform="translate(51.429 -5.7143)"
       d="m625.71 443.79a331.43 331.43 0 1 1 -662.86 0 331.43 331.43 0 1 1 662.86 0z"
       fill="#cf0"
       id="path117" />
    <g
       transform="translate(31.429 -2.8571)"
       id="g239">
      <path
         d="m188.25 474.34s16.815 12.734 22.213 33.813 30.06 207.61 28.085 220.32-12.544 34.193-12.544 34.193l44.382-43.702s-31.64-30.035-35.817-68.273-20.501-156.43-20.501-156.43-4.5493-7.9358-0.1901-17.378-8.8792-17.283-18.227-12.953-7.1825 9.0036-7.4019 10.415z"
         fill="url(#n)"
         fill-rule="evenodd"
         id="path119" />
      <path
         d="m182.86 399.51s21.429-14.286 45.714 27.143-10 44.286-10 44.286 80 32.857 100 12.857 8.5714-75.714-22.857-101.43-47.143-41.429-68.571-21.429-45.714 41.429-44.286 38.571z"
         fill="#668000"
         fill-rule="evenodd"
         id="path121" />
      <path
         d="m239.09 187.97c-37.859 0.95249-58.969 55.988-95.219 77.188-25.429 14.872-31.643 33.331-26.094 41.094 30.998 43.362 39.375 111.83 39.375 120.41s-15.719 8.5491-15.719 21.406 18.562 10.018 28.562 2.875 27.138-64.29 64.281-75.719 71.446 34.286 72.875 80-87.143-7.1473-120-5.7188-42.875 32.875-42.875 32.875 31.442-17.143 77.156 0c13.524 5.0714 24.527 12.151 33.344 19.594-4.9778 17.32-18.687 68.807-10.312 84.719 10.102 19.193 50.5 20.188 50.5 20.188s-20.206 7.0945-12.125 10.125c5.7841 2.169 14.15 9.5212 18.812 10.188-2.7655 28.5-12.198 56.831-25.938 80.875-28.571 50-170 70-194.28 70s-22.853 34.299 35.719 37.156 150-12.857 144.28 30 51.415 71.424 132.84 74.281-1.4196-24.281 21.438-44.281 268.58-47.129 271.44-72.844-72.884-42.884-94.312-44.312-2.8527-17.138-4.2812-34.281-154.28 12.879-158.56-1.4062 9.9866-110-7.1562-165.72c-5.324-17.303-16.84-40.279-30.5-65.5 4.5595-8.9783 11.335-21.093 19.812-32.75 16.162-22.223 88.88-58.608 107.06-72.75s6.047 2.0219 26.25 6.0625 26.281-18.188 26.281-18.188 10.608-28.769 6.0625-42.406c-5.8902-17.67-12.125 34.344-12.125 34.344s-2.036-22.239-20.219-20.219 22.247 18.191 10.125 30.312-10.106-16.155-18.188-10.094-8.1015-10.106 2-18.188-14.127-22.225-20.188-6.0625 8.0938 28.281 8.0938 28.281-86.897 54.553-131.34 58.594c-18.015 1.6377-31.053-0.37029-40.188-3.3438-19.823-36.743-37.218-72.399-41.5-98.094-10-60-4.2723-121.44-62.844-137.16-4.3097-1.1563-8.4273-1.6298-12.344-1.5312zm28.938 344.81c3.7624-0.0223 8.9361 0.77435 13.562 1.5 1.7854 3.2096 2.6875 5.2187 2.6875 5.2188 9.3047 15.508 14.751 32.81 17 50.781-5.5578-2.6839-8.3438 7.5-8.3438 7.5s-41.406-4.0258-41.406-23.219 6.0539-39.386 13.125-41.406c0.88388-0.25254 2.0433-0.36711 3.375-0.375zm34.312 70.875c0.18041 4.6472 0.20519 9.3185 0 14-3.5926-2.6848-9.4062-2.6875-9.4062-2.6875l9.4062-11.312z"
         fill="#8a0"
         fill-rule="evenodd"
         id="path123" />
      <path
         d="m235.69 193.91c-2.7484-0.05419-4.25 1.6652-4.25 5.5938 0 11.429 22.844 44.295 22.844 81.438s-2.8482 64.286 11.438 80 41.415 57.147 42.844 65.719c0.80322 4.8194 10.605 29.787 19.062 50.875-12.597 5.564-5.9648 18.179 3.8125 54.844 11.429 42.857 18.562 151.4 18.562 185.69s61.433 40.013 95.719 37.156 80.009-5.7009 91.438-12.844-30.022-2.8839-28.594-4.3125c-1e-5 -1e-5 -61.411 4.2857-87.125 0s-51.438-39.987-41.438-72.844-8.5759-142.86-25.719-165.72c-15.384-20.512 0.20345-27.187-12.938-25.25-9.5599-20.719-36.473-78.539-47.062-96.188-12.857-21.429-24.281-78.567-24.281-104.28s11.415-47.129-7.1562-62.844c-12.188-10.312-21.909-16.928-27.156-17.031z"
         fill="#aad400"
         fill-rule="evenodd"
         filter="url(#ak)"
         opacity=".60577"
         id="path125" />
      <path
         d="m225.71 209.51s14.286 25.714 14.286 54.286-7.1429 52.857-7.1429 68.571 17.143 32.857 17.143 32.857-30 5.7143-38.571 10-17.143 18.571-17.143 18.571-18.571-37.143-18.571-78.571 0-64.286 17.143-82.857 35.714-21.429 32.857-22.857z"
         fill="#668000"
         fill-rule="evenodd"
         filter="url(#aj)"
         opacity=".73558"
         id="path127" />
      <path
         d="m300 478.08s41.429 47.143 40 102.86-2.8571 127.14 8.5714 154.29 95.714 27.143 127.14 32.857 80-12.857 51.429 18.571-131.43 24.286-141.43 38.571 24.286 40-8.5714 38.571-71.429-24.286-81.429-44.286-47.143-27.143-74.286-25.714-77.143 11.429-58.571 0 130-24.286 148.57-82.857 24.286-130 2.8571-165.71-77.143-71.429-77.143-71.429 37.143 14.286 62.857 4.2857z"
         fill="url(#m)"
         fill-rule="evenodd"
         filter="url(#ai)"
         opacity=".73558"
         id="path129" />
      <path
         d="m227.79 378.09s-2.0203 29.8 10.607 32.83 21.213 1.0102 22.223-5.5558-7.0711-31.82-7.0711-31.82-10.102-3.0305-25.759 4.5457z"
         fill="#e5ff80"
         fill-rule="evenodd"
         id="path131" />
      <path
         d="m269.21 380.61s-4.0406 16.668-2.0203 22.728 11.112 6.0609 16.162 6.0609 6.566-9.0914 6.566-9.0914-6.0609-11.617-20.708-19.698z"
         fill="#e5ff80"
         fill-rule="evenodd"
         id="path133" />
      <path
         d="m259.1 467.99s-4.0406-16.668-1.5152-20.708 16.668-7.5762 18.183-3.0305 2.5254 28.284 2.5254 28.284-13.637-2.0203-19.193-4.5457z"
         fill="#e5ff80"
         fill-rule="evenodd"
         id="path135" />
      <path
         d="m169.71 464.45c10.102 12.122 20.203 24.244 18.183 107.08s0 149.5-16.162 173.75-54.548 38.386-54.548 38.386 44.447 0 80.812-4.0406 50.508-28.284 50.508-28.284-60.609 26.264-56.569-62.629c2.2017-48.437 0-177.79 2.0203-193.95s10.102-34.345 10.102-34.345l-34.345 4.0406z"
         fill="#87a900"
         fill-rule="evenodd"
         id="path137" />
      <path
         d="m202.54 751.84s-12.627-21.213-12.627-27.779-1.0102-26.264-1.0102-26.264 2.5254 31.315 0 39.396-11.617 23.234-18.183 26.264-13.132 4.5457-13.132 4.5457 18.183 2.0203 29.8-3.5355 16.162-13.132 15.152-12.627z"
         fill="#668000"
         fill-rule="evenodd"
         filter="url(#ah)"
         id="path139" />
      <path
         d="m185.71 474.51 8.5714 0.71428s-3.5714 15-3.5714 20v97.857l-2.1429-96.429-2.8571-22.143z"
         fill="#668000"
         fill-rule="evenodd"
         filter="url(#ag)"
         id="path141" />
      <path
         d="m185.71 473.79s4.2857 22.143 4.2857 27.857-1.4286 232.86-1.4286 232.86-2.8571 14.286-7.1429 18.571-15.714 14.286-15.714 14.286l-9.2857 1.4286s23.571-17.143 27.143-30.714 4.2857-73.571 4.2857-73.571l-1.4286-175.71-5.7143-16.429 5 1.4286z"
         fill="#aad400"
         fill-rule="evenodd"
         filter="url(#af)"
         id="path143" />
      <path
         d="m504.29 758.08a9.2857 4.2857 0 1 1 -18.571 0 9.2857 4.2857 0 1 1 18.571 0z"
         fill="#cf0"
         opacity=".9375"
         id="path145" />
      <path
         d="m532.86 778.08a17.143 7.1429 0 1 1 -34.286 0 17.143 7.1429 0 1 1 34.286 0z"
         fill="#cf0"
         opacity=".9375"
         id="path147" />
      <path
         d="m537.14 758.79a9.2857 3.5714 0 1 1 -18.571 0 9.2857 3.5714 0 1 1 18.571 0z"
         fill="#cf0"
         opacity=".9375"
         id="path149" />
      <path
         d="m241.43 768.08a10.714 4.2857 0 1 1 -21.429 0 10.714 4.2857 0 1 1 21.429 0z"
         fill="#cf0"
         opacity=".9375"
         id="path151" />
      <path
         d="m205.71 781.65a18.571 6.4286 0 1 1 -37.143 0 18.571 6.4286 0 1 1 37.143 0z"
         fill="#cf0"
         opacity=".9375"
         id="path153" />
      <path
         d="m238.57 786.65a7.1429 4.2857 0 1 1 -14.286 0 7.1429 4.2857 0 1 1 14.286 0z"
         fill="#cf0"
         opacity=".9375"
         id="path155" />
      <path
         d="m370 833.79a12.857 7.1429 0 1 1 -25.714 0 12.857 7.1429 0 1 1 25.714 0z"
         fill="#668000"
         opacity=".9375"
         id="path157" />
      <path
         d="m358.57 851.65a18.571 9.2857 0 1 1 -37.143 0 18.571 9.2857 0 1 1 37.143 0z"
         fill="#668000"
         opacity=".9375"
         id="path159" />
      <path
         d="m397.14 853.08a12.143 7.8571 0 1 1 -24.286 0 12.143 7.8571 0 1 1 24.286 0z"
         fill="#668000"
         opacity=".9375"
         id="path161" />
      <path
         d="m531.34 858.41s-98.995 12.122-84.853 22.223 46.467 18.183 38.386 24.244-66.67 20.203-46.467 28.284 70.711-16.162 78.792-2.0203-24.244 20.203 2.0203 22.223 86.873-18.183 78.792-40.406-40.406-4.0406-46.467-22.223 48.487-10.102 46.467-24.244-64.65-8.0812-66.67-8.0812z"
         fill="#87a900"
         fill-rule="evenodd"
         id="path163" />
      <path
         d="m444.47 931.14s6.0609 4.5457 21.213 1.0102 36.365-7.0711 42.426-7.5762 13.132 7.5762 12.627 11.112-6.0609 8.0812-6.0609 8.0812 13.132-7.5761 6.566-15.152-11.617-6.566-19.698-5.5558-44.952 8.5863-44.952 8.5863-9.0914 2.5254-12.122-0.50508z"
         fill="#668000"
         fill-rule="evenodd"
         filter="url(#ae)"
         id="path165" />
      <path
         d="m523.76 949.33c3.5355 0.50508 31.82-1.5152 48.992-10.102s24.749-19.698 24.749-19.698l-1.0102-6.0609s-0.50508 11.112-11.617 16.668-36.365 14.647-44.952 14.647-24.244 3.0304-24.244 3.0304l8.0812 1.5152z"
         fill="#668000"
         fill-rule="evenodd"
         filter="url(#ad)"
         id="path167" />
      <path
         transform="matrix(.99889 -.047172 .047172 .99889 -40.116 29.059)"
         d="m548.51 888.72s-0.50507-8.5863 7.0711-10.102 33.84-5.5558 37.376-7.5761 2.5254-6.566 2.5254-6.566-4.0406 4.0406-15.152 6.0609-28.284 2.5254-31.82 8.0812 1.0102 10.607 0 10.102z"
         fill="#668000"
         fill-rule="evenodd"
         filter="url(#ac)"
         id="path169" />
      <path
         d="m543.97 887.71s-1.5152 15.657 10.102 15.152 29.294-1.0102 31.82 5.0508-0.50508 16.668-22.223 22.728-30.305 5.5558-30.81-1.0102-4.5457-13.132-18.688-13.132-33.84 0.50507-14.142-7.0711 32.325-18.688 38.386-26.264 17.678-15.657 27.274-15.657 17.678 2.5254 6.0609 3.5355-23.234 5.0508-25.254 9.0914-2.0203 7.0711-2.5254 7.5762z"
         fill="url(#l)"
         fill-rule="evenodd"
         filter="url(#ab)"
         id="path171" />
      <path
         d="m228.56 200.94s29.996 11.429 34.281 30 17.152 111.42 17.152 111.42l12.875 40 35.129 96.304-3.7188 3.7188s24.277 34.259 28.562 55.688 11.438 75.732 11.438 102.88-1.433 54.268 4.2812 67.125c4.8177 10.84 16.639 19.565 19.406 22.062-2.956-3.9142-19.27-27.32-17.969-66.344 1.4286-42.857-2.8661-111.43-11.438-130-7.7045-16.693-27.202-64.68-31.25-74.656l-0.15625-1.0625c1e-5 -1e-5 -37.147-91.406-40.004-102.83s-14.308-80-14.308-98.571-11.406-41.451-21.406-48.594-22.875-7.125-22.875-7.125zm159.41 529.19c0.29037 0.3845 0.59375 0.8125 0.59375 0.8125 0.22414 0-0.07873-0.34776-0.59375-0.8125z"
         fill="url(#k)"
         fill-rule="evenodd"
         filter="url(#aa)"
         id="path173" />
      <path
         d="m210 215.22s-40 55.714-41.429 97.143 8.5714 61.429 12.857 72.857-11.429 31.429-11.429 31.429-28.571-55.714-22.857-92.857 0-51.429 62.857-108.57z"
         fill="url(#j)"
         fill-rule="evenodd"
         filter="url(#z)"
         id="path175" />
      <g
         transform="matrix(.78723 0 0 .78723 51.125 70.822)"
         id="g189">
        <path
           d="m271.43 295.93a35.714 33.571 0 1 1 -71.429 0 35.714 33.571 0 1 1 71.429 0z"
           fill="#450"
           filter="url(#f)"
           opacity=".9375"
           id="path177" />
        <path
           transform="matrix(.87234 0 0 .87234 37.295 34.04)"
           d="m258.57 300.22a33.571 33.571 0 1 1 -67.143 0 33.571 33.571 0 1 1 67.143 0z"
           fill="url(#c)"
           opacity=".9375"
           id="path179" />
        <path
           d="m250.71 290.58a10.357 9.6429 0 1 1 -20.714 0 10.357 9.6429 0 1 1 20.714 0z"
           fill="#f6ffd5"
           filter="url(#e)"
           opacity=".9375"
           id="path181" />
        <path
           transform="matrix(1.1111 0 0 1.1111 -23.73 -30.421)"
           d="m239.29 296.29a9.6429 9.6429 0 1 1 -19.286 0 9.6429 9.6429 0 1 1 19.286 0z"
           fill="#445016"
           opacity=".9375"
           id="path183" />
        <path
           transform="matrix(.66667 0 0 .66667 76.905 101.98)"
           d="m239.29 296.29a9.6429 9.6429 0 1 1 -19.286 0 9.6429 9.6429 0 1 1 19.286 0z"
           fill="#22280b"
           opacity=".9375"
           id="path185" />
        <path
           d="m236.43 295.22a2.6786 2.6786 0 1 1 -5.3571 0 2.6786 2.6786 0 1 1 5.3571 0z"
           fill="#e5ff80"
           opacity=".9375"
           id="path187" />
      </g>
      <g
         transform="matrix(-.26563 -.99135 .99135 -.26563 -59.354 620.36)"
         id="g203">
        <path
           d="m271.43 295.93a35.714 33.571 0 1 1 -71.429 0 35.714 33.571 0 1 1 71.429 0z"
           fill="#450"
           filter="url(#f)"
           opacity=".9375"
           id="path191" />
        <path
           transform="matrix(.87234 0 0 .87234 37.295 34.04)"
           d="m258.57 300.22a33.571 33.571 0 1 1 -67.143 0 33.571 33.571 0 1 1 67.143 0z"
           fill="url(#c)"
           opacity=".9375"
           id="path193" />
        <path
           d="m250.71 290.58a10.357 9.6429 0 1 1 -20.714 0 10.357 9.6429 0 1 1 20.714 0z"
           fill="#f6ffd5"
           filter="url(#e)"
           opacity=".9375"
           id="path195" />
        <path
           transform="matrix(1.1111 0 0 1.1111 -23.73 -30.421)"
           d="m239.29 296.29a9.6429 9.6429 0 1 1 -19.286 0 9.6429 9.6429 0 1 1 19.286 0z"
           fill="#445016"
           opacity=".9375"
           id="path197" />
        <path
           transform="matrix(.66667 0 0 .66667 76.905 101.98)"
           d="m239.29 296.29a9.6429 9.6429 0 1 1 -19.286 0 9.6429 9.6429 0 1 1 19.286 0z"
           fill="#22280b"
           opacity=".9375"
           id="path199" />
        <path
           d="m236.43 295.22a2.6786 2.6786 0 1 1 -5.3571 0 2.6786 2.6786 0 1 1 5.3571 0z"
           fill="#e5ff80"
           opacity=".9375"
           id="path201" />
      </g>
      <path
         d="m357.86 473.79 17.857 19.286s26.429-36.429 34.286-42.143 60-39.286 60-39.286l-112.14 62.143z"
         fill="#668000"
         fill-rule="evenodd"
         filter="url(#y)"
         id="path205" />
      <path
         d="m411.43 699.51c-2.8571-5.7143 1.4286-85.714-1.4286-111.43s-22.857-90-35.714-101.43-18.571-20-18.571 0 34.286 92.857 32.857 120-5.7143 62.857-1.4286 77.143 27.143 18.571 24.286 15.714z"
         fill="url(#i)"
         fill-rule="evenodd"
         filter="url(#x)"
         id="path207" />
      <path
         d="m134.35 457.38s-41.416-23.234-45.457-3.0304 45.457 3.0304 45.457 3.0304z"
         fill="#8a0"
         fill-rule="evenodd"
         id="path209" />
      <path
         d="m133.34 470.51s-44.447 21.213-38.386 37.376 13.132 6.0609 18.183-7.0711 21.213-31.315 20.203-30.305z"
         fill="#8a0"
         fill-rule="evenodd"
         id="path211" />
      <path
         d="m86.873 472.53s-48.487 0-34.345 15.152 36.365-14.142 34.345-15.152z"
         fill="#8a0"
         fill-rule="evenodd"
         id="path213" />
      <path
         d="m89.904 456.37c1.0102 2.5254 5.5558 5.0508 13.132 5.0508s22.728-3.5355 22.728-3.5355l-35.86-1.5152z"
         fill="#668000"
         fill-rule="evenodd"
         filter="url(#b)"
         id="path215" />
      <path
         transform="matrix(.72782 -.33608 .33709 .72563 -140.15 153.82)"
         d="m47.225 482.64c1.0102 2.5254 5.5558 5.0508 13.132 5.0508s22.728-3.5355 22.728-3.5355l-35.86-1.5152z"
         fill="#668000"
         fill-rule="evenodd"
         filter="url(#b)"
         id="path217" />
      <path
         transform="matrix(.55476 -.83201 .83201 .55476 -369.96 308.18)"
         d="m89.651 503.34c1.0102 2.5254 5.5558 5.0508 13.132 5.0508s22.728-3.5355 22.728-3.5355l-35.86-1.5152z"
         fill="#668000"
         fill-rule="evenodd"
         filter="url(#b)"
         id="path219" />
      <path
         d="m121.72 453.85s-16.162-6.566-21.718-6.0609-7.0711 4.5457-7.0711 4.5457l13.132-1.5152 15.657 3.0305z"
         fill="#d4ff2a"
         fill-rule="evenodd"
         filter="url(#v)"
         id="path221" />
      <path
         d="m78.287 474.55s-18.183 2.5254-22.223 4.0406-5.5558 6.0609-2.5254 5.0508 9.0914-5.0508 9.0914-5.0508l15.657-4.0406z"
         fill="#d4ff2a"
         fill-rule="evenodd"
         filter="url(#w)"
         id="path223" />
      <path
         d="m94.954 502.33c1.0102 3.5355 2.5254 5.5558 2.5254 5.5558s7.5761-12.122 10.102-15.657 14.647-13.132 14.647-13.132l-18.183 12.122-9.0914 11.112z"
         fill="#d4ff2a"
         fill-rule="evenodd"
         filter="url(#u)"
         id="path225" />
      <path
         d="m72.731 794.77s12.122 16.162 38.386 16.162 89.904-3.0304 89.904-3.0304 33.335 1.0102 42.426 5.0508 16.162 11.112 16.162 11.112-10.102-19.193-39.396-20.203-96.975 1.0102-112.13 1.0102-27.274-6.0609-35.355-10.102z"
         fill="#66781f"
         fill-opacity=".99608"
         fill-rule="evenodd"
         filter="url(#t)"
         id="path227" />
      <path
         d="m263.65 829.12s0 29.294 2.0203 34.345 30.305 37.376 65.66 44.447 79.802 8.0812 79.802 8.0812l16.162-3.0305-7.0711-12.122s7.0711 7.0711-25.254 7.0711-74.751-5.0508-92.934-15.152-31.315-23.234-34.345-30.305-3.0304-33.335-4.0406-33.335z"
         fill="#66781f"
         fill-opacity=".99608"
         fill-rule="evenodd"
         filter="url(#s)"
         id="path229" />
      <path
         transform="translate(4.0406 -6.566)"
         d="m254.56 231.11a24.244 21.213 0 1 1 -48.487 0 24.244 21.213 0 1 1 48.487 0z"
         fill="url(#h)"
         filter="url(#r)"
         opacity=".66827"
         id="path231" />
      <path
         d="m428.57 866.65s81.429-20 108.57-25 82.857-16.429 82.857-16.429 51.429-11.429 55-15.714 8.5714-7.1429 7.8571-11.429-20.714-17.143-20.714-17.143 15.714 16.429-9.2857 27.143-127.86 32.143-127.86 32.143l-96.429 26.429z"
         fill="#668000"
         fill-rule="evenodd"
         filter="url(#q)"
         id="path233" />
      <path
         d="m605.71 764.51s55.714 11.429 57.143 21.429 0 12.857-15 18.571-165.71 42.857-165.71 42.857 123.57-38.571 131.43-50 13.571-20.714-2.1429-21.429-54.286-5-47.857-17.143 14.286-28.571 14.286-28.571-12.143 25.714-2.1428 28.571 30.714 5.7143 30 5.7143z"
         fill="#9bc100"
         fill-rule="evenodd"
         filter="url(#p)"
         id="path235" />
      <path
         d="m272.74 851.34s16.162 35.355 59.599 43.437 66.67 10.102 76.772 8.0812 2.0203-10.102-4.0406-17.173 4.0406-17.173 4.0406-17.173-5.0508 2.0203-45.457 3.0305-70.711-9.0914-79.802-20.203-7.0711-34.345-17.173-40.406-15.152 0-6.0609 8.0812 14.142 33.335 12.122 32.325z"
         fill="url(#g)"
         fill-rule="evenodd"
         filter="url(#o)"
         id="path237" />
    </g>
  </g>
  <text
     xml:space="preserve"
     style="font-style:normal;font-weight:normal;font-size:109.188px;line-height:1.25;font-family:sans-serif;fill:#000000;fill-opacity:1;stroke:none;stroke-width:0.568685"
     x="-170.04834"
     y="643.62946"
     id="text2513"
     transform="rotate(-27.468506)"><tspan
       sodipodi:role="line"
       id="tspan2511"
       x="-170.04834"
       y="643.62946"
       style="font-style:normal;font-variant:normal;font-weight:normal;font-stretch:normal;font-size:109.188px;font-family:Bangers;-inkscape-font-specification:Bangers;stroke-width:0.568685">Don't be toxic</tspan></text>
</svg>
